<?xml version="1.0" encoding="UTF-8"?> <svg xmlns="http://www.w3.org/2000/svg" fill="none" viewBox="0 0 48 49"><g fill="#EB9947" clip-path="url(#a)"><path fill-rule="evenodd" d="M.5 46.5405c0-.5523.447715-1 1-1h45c.5523 0 1 .4477 1 1s-.4477 1-1 1h-45c-.552285 0-1-.4477-1-1ZM12.106 29.5405c-.3292.0001-.6533.0814-.9436.2367-.2903.1554-.5377.38-.7203.654l-4.07345 6.1093H38.6313l-4.0733-6.1092c-.1826-.274-.4301-.4987-.7204-.6541-.2903-.1553-.6144-.2366-.9436-.2367m-20.788 0Zm20.788 0H12.106h20.788Zm-22.6754-1.5266c.5805-.3107 1.2288-.4733 1.8873-.4734H32.894c.6585.0001 1.3069.1627 1.8874.4734.5806.3108 1.0754.7601 1.4407 1.308l5.1099 7.6639c.2046.3068.2237.7014.0497 1.0266-.174.3251-.5129.5281-.8817.5281h-36c-.36881 0-.70767-.203-.88169-.5281-.17401-.3252-.15492-.7198.04967-1.0266l5.10995-7.6639c-.00002 0 .00001-.0001 0 0 .36523-.5479.86013-.9972 1.44067-1.308Z" clip-rule="evenodd"></path><path d="M37.2565 10.9716c.2469-.494.0466-1.09461-.4474-1.34155-.494-.24693-1.0946-.04664-1.3416.44735l-3.678 7.358c-.1662.3322-.4215.6115-.7375.8067-.316.1952-.6805.2985-1.052.2984H14.9997c-.3715.0001-.7356-.1032-1.0517-.2984-.316-.1952-.5715-.4748-.7376-.8069l-3.65392-7.3098c-.09597-.19198-.24537-.33961-.42117-.43386-.27654-.14827-.61841-.16445-.92043-.01349-.494.24694-.69429.84755-.44736 1.34155l3.65398 7.31c.3324.6645.8433 1.2235 1.4754 1.614.632.3904 1.3602.5971 2.1031.5969h15c.7429.0002 1.4711-.2065 2.1031-.5969.6321-.3905 1.143-.9495 1.4754-1.614l3.678-7.358Z"></path><path fill-rule="evenodd" d="M9.146 13.5405c0-.5523.44771-1 1-1h24.708c.5523 0 1 .4477 1 1s-.4477 1-1 1H10.146c-.55229 0-1-.4477-1-1Z" clip-rule="evenodd"></path><path fill-rule="evenodd" d="M22.5 8.54053c-1.3261 0-2.5979.52678-3.5355 1.46447-.9377.9377-1.4645 2.2094-1.4645 3.5355 0 .5523-.4477 1-1 1s-1-.4477-1-1c0-1.8565.7375-3.63697 2.0503-4.94972C18.863 7.27803 20.6435 6.54053 22.5 6.54053s3.637.7375 4.9497 2.05025C28.7625 9.90353 29.5 11.684 29.5 13.5405c0 .5523-.4477 1-1 1s-1-.4477-1-1c0-1.3261-.5268-2.5978-1.4645-3.5355-.9376-.93769-2.2094-1.46447-3.5355-1.46447Z" clip-rule="evenodd"></path><path fill-rule="evenodd" d="M22.5.540527c.5523 0 1 .447716 1 1.000003v6c0 .55228-.4477 1-1 1s-1-.44772-1-1v-6c0-.552287.4477-1.000003 1-1.000003ZM15.5 19.5405c0-.5523.4477-1 1-1h12c.5523 0 1 .4477 1 1v9c0 .5523-.4477 1-1 1h-12c-.5523 0-1-.4477-1-1v-9Zm2 1v7h10v-7h-10ZM9.5 37.5405c0-.5523.44771-1 1-1h24c.5523 0 1 .4477 1 1v9c0 .5523-.4477 1-1 1h-24c-.55229 0-1-.4477-1-1v-9Zm2 1v7h22v-7h-22Z" clip-rule="evenodd"></path><path fill-rule="evenodd" d="M22.5 18.5405c.5523 0 1 .4477 1 1v9c0 .5523-.4477 1-1 1s-1-.4477-1-1v-9c0-.5523.4477-1 1-1ZM22.5 36.5405c.5523 0 1 .4477 1 1v9c0 .5523-.4477 1-1 1s-1-.4477-1-1v-9c0-.5523.4477-1 1-1ZM16.5 36.5405c.5523 0 1 .4477 1 1v9c0 .5523-.4477 1-1 1s-1-.4477-1-1v-9c0-.5523.4477-1 1-1ZM28.5 36.5405c.5523 0 1 .4477 1 1v9c0 .5523-.4477 1-1 1s-1-.4477-1-1v-9c0-.5523.4477-1 1-1ZM.792893 33.8334c.390527-.3905 1.023687-.3905 1.414217 0l3 3c.39052.3905.39052 1.0237 0 1.4142-.39053.3906-1.02369.3906-1.41422 0l-2.999997-3c-.390524-.3905-.390524-1.0237 0-1.4142ZM44.2071 33.8334c.3905.3905.3905 1.0237 0 1.4142l-3 3c-.3905.3906-1.0237.3906-1.4142 0-.3905-.3905-.3905-1.0237 0-1.4142l3-3c.3905-.3905 1.0237-.3905 1.4142 0Z" clip-rule="evenodd"></path></g><defs><clipPath id="a"><path fill="#fff" d="M0 .0405273h48v48H0z"></path></clipPath></defs></svg> 