<?xml version="1.0" encoding="UTF-8"?> <svg xmlns="http://www.w3.org/2000/svg" width="56" height="56" viewBox="0 0 56 56" fill="none"><path fill-rule="evenodd" clip-rule="evenodd" d="M43.8669 1.34027C43.6961 0.88492 43.2608 0.583252 42.7745 0.583252C42.2882 0.583252 41.8529 0.88492 41.6821 1.34027L36.4321 15.3403C36.2978 15.6986 36.3476 16.0999 36.5656 16.4144C36.7835 16.729 37.1418 16.9166 37.5245 16.9166H41.6078V20.9999C41.6078 21.6443 42.1302 22.1666 42.7745 22.1666C43.4188 22.1666 43.9412 21.6443 43.9412 20.9999V16.9166H48.0245C48.4071 16.9166 48.7655 16.729 48.9834 16.4144C49.2014 16.0999 49.2512 15.6986 49.1169 15.3403L43.8669 1.34027ZM42.7745 5.07259L46.341 14.5833H39.208L42.7745 5.07259ZM20.0245 5.83325C18.0906 5.83325 16.236 6.60148 14.8685 7.96893C13.5011 9.33638 12.7328 11.191 12.7328 13.1249C12.7328 15.0588 13.5011 16.9135 14.8685 18.2809C15.554 18.9664 16.3619 19.5013 17.2408 19.8643C14.3522 20.0312 11.5367 20.8662 9.01811 22.3093C6.20079 23.9237 3.85128 26.245 2.20227 29.0422C1.89178 29.5707 1.68841 30.1551 1.60379 30.7622C1.51916 31.3692 1.55492 31.987 1.70904 32.5802C2.0203 33.7782 2.79473 34.8036 3.86198 35.4306C4.92922 36.0577 6.20186 36.2351 7.39992 35.9239C8.59669 35.613 9.62112 34.8398 10.2484 33.7744C10.9102 32.664 11.796 31.7037 12.8494 30.9546C13.4195 30.5491 14.0319 30.2104 14.6746 29.9436L13.8206 35.0642L5.57133 48.2699C5.23856 48.7874 5.0114 49.3657 4.90295 49.9714C4.79394 50.5802 4.80705 51.2046 4.9415 51.8083C5.07595 52.412 5.32906 52.983 5.68613 53.488C6.04319 53.993 6.49709 54.422 7.02142 54.75C7.54576 55.0781 8.13007 55.2986 8.74039 55.3989C9.35071 55.4991 9.97487 55.477 10.5766 55.3338C11.1783 55.1907 11.7455 54.9294 12.2453 54.5651C12.7428 54.2025 13.1636 53.7451 13.4835 53.2192L19.5414 43.5265L19.6885 43.6356L19.6908 43.6373C19.9795 43.8544 20.2139 44.1356 20.3755 44.4588C20.5375 44.7828 20.6218 45.14 20.6218 45.5023V50.7523C20.6218 51.9899 21.1135 53.1769 21.9887 54.0521C22.8638 54.9273 24.0508 55.4189 25.2885 55.4189C26.5262 55.4189 27.7132 54.9273 28.5883 54.0521C29.4635 53.1769 29.9552 51.9899 29.9552 50.7523L29.9552 45.4999L29.9552 45.4973C29.9512 43.6877 29.5279 41.9035 28.7186 40.2849C27.9093 38.6662 26.7359 37.2571 25.2906 36.1681L23.3549 34.7236L23.9567 31.114C24.6197 31.6251 25.213 32.2258 25.7178 32.8999C26.4604 33.8901 27.566 34.5447 28.7912 34.7197C30.0164 34.8947 31.261 34.5759 32.2512 33.8333C33.2413 33.0906 33.8959 31.9851 34.0709 30.7599C34.2416 29.565 33.9426 28.3516 33.2388 27.3738C33.2205 27.344 33.2009 27.315 33.18 27.287C31.4513 24.9646 29.2017 23.0804 26.6121 21.7858C25.1108 21.0353 23.5196 20.4951 21.8832 20.1757C23.12 19.8497 24.2605 19.2009 25.1805 18.2809C26.5479 16.9135 27.3162 15.0588 27.3162 13.1249C27.3162 11.191 26.5479 9.33639 25.1805 7.96893C23.813 6.60148 21.9584 5.83325 20.0245 5.83325ZM16.5184 9.61885C17.4483 8.68898 18.7095 8.16659 20.0245 8.16659C21.3395 8.16659 22.6007 8.68898 23.5306 9.61885C24.4604 10.5487 24.9828 11.8099 24.9828 13.1249C24.9828 14.44 24.4604 15.7011 23.5306 16.631C22.6007 17.5609 21.3395 18.0833 20.0245 18.0833C18.7095 18.0833 17.4483 17.5609 16.5184 16.631C15.5886 15.7011 15.0662 14.44 15.0662 13.1249C15.0662 11.8099 15.5886 10.5487 16.5184 9.61885ZM46.2745 26.8333C44.8048 26.8333 43.3952 27.4171 42.3559 28.4564C41.3167 29.4956 40.7328 30.9052 40.7328 32.3749C40.7328 33.8447 41.3167 35.2542 42.3559 36.2935C43.3952 37.3327 44.8048 37.9166 46.2745 37.9166C47.7442 37.9166 49.1538 37.3327 50.193 36.2935C51.2323 35.2542 51.8162 33.8447 51.8162 32.3749C51.8162 30.9052 51.2323 29.4956 50.193 28.4564C49.1538 27.4171 47.7442 26.8333 46.2745 26.8333ZM44.0059 30.1063C44.6075 29.5046 45.4236 29.1666 46.2745 29.1666C47.1254 29.1666 47.9414 29.5046 48.5431 30.1063C49.1448 30.708 49.4828 31.524 49.4828 32.3749C49.4828 33.2258 49.1448 34.0419 48.5431 34.6436C47.9414 35.2452 47.1254 35.5833 46.2745 35.5833C45.4236 35.5833 44.6075 35.2452 44.0059 34.6436C43.4042 34.0419 43.0662 33.2258 43.0662 32.3749C43.0662 31.524 43.4042 30.708 44.0059 30.1063ZM25.5687 23.8728C23.3057 22.7415 20.8088 22.1571 18.2789 22.1666C15.4368 22.1739 12.6441 22.9208 10.1782 24.3339C7.71242 25.7468 5.6568 27.7771 4.21347 30.2253C4.05853 30.4893 3.95704 30.7812 3.91477 31.0843C3.87245 31.3879 3.89034 31.6968 3.96741 31.9935C4.12305 32.5926 4.51032 33.1053 5.04401 33.4189C5.5777 33.7324 6.21409 33.8212 6.81319 33.6655C7.4123 33.5099 7.92503 33.1226 8.2386 32.5889L8.24213 32.5829C9.07004 31.1929 10.1786 29.9907 11.4971 29.053C12.8157 28.1154 14.3152 27.4629 15.8999 27.1371C16.2766 27.0597 16.6672 27.1729 16.9442 27.4397C17.2211 27.7064 17.3489 28.0925 17.2856 28.4718L16.0839 35.6772C16.0587 35.8285 16.0039 35.9733 15.9226 36.1034L7.53663 49.528C7.36885 49.7877 7.25426 50.0782 7.19976 50.3826C7.14526 50.687 7.15181 50.9992 7.21903 51.3011C7.28626 51.6029 7.41281 51.8884 7.59135 52.1409C7.76988 52.3934 7.99683 52.6079 8.25899 52.772C8.52116 52.936 8.81331 53.0462 9.11848 53.0964C9.42364 53.1465 9.73572 53.1354 10.0366 53.0638C10.3374 52.9923 10.621 52.8616 10.871 52.6795C11.1209 52.4973 11.3321 52.2673 11.4923 52.0028L11.5007 51.9889L18.2325 41.2183C18.405 40.9422 18.6851 40.7507 19.005 40.6902C19.3249 40.6297 19.6556 40.7057 19.917 40.8997L21.0885 41.7689C21.6681 42.2036 22.1385 42.7673 22.4625 43.4153C22.7865 44.0632 22.9552 44.7778 22.9552 45.5023V50.7523C22.9552 51.3711 23.201 51.9646 23.6386 52.4022C24.0762 52.8398 24.6697 53.0856 25.2885 53.0856C25.9073 53.0856 26.5008 52.8398 26.9384 52.4022C27.376 51.9646 27.6218 51.3711 27.6218 50.7523L27.6218 45.5025C27.6185 44.0537 27.2795 42.6243 26.6316 41.3284C25.9839 40.033 25.045 38.9051 23.8885 38.0333L23.8864 38.0317L21.3894 36.1683C21.0394 35.907 20.8645 35.4722 20.9364 35.0414L21.9444 28.9957C22.0057 28.6277 22.2394 28.3112 22.573 28.1443C22.9067 27.9773 23.3001 27.98 23.6314 28.1515C25.1849 28.9555 26.5365 30.1004 27.585 31.5006C27.9563 31.9953 28.5088 32.3223 29.1212 32.4098C29.7338 32.4973 30.3561 32.3379 30.8512 31.9666C31.3462 31.5953 31.6735 31.0425 31.761 30.4299C31.8486 29.8173 31.6891 29.195 31.3178 28.6999C31.2978 28.6732 31.2789 28.6456 31.2612 28.6173C29.7569 26.6167 27.8083 24.9924 25.5687 23.8728Z" fill="#EB9947"></path><path d="M36.7078 37.7999C36.3212 37.2845 35.59 37.18 35.0745 37.5666C34.559 37.9532 34.4546 38.6845 34.8412 39.1999C35.6989 40.3436 36.7206 41.3484 37.8697 42.1839C38.504 42.6452 39.1772 43.0548 39.8831 43.4078C40.1778 43.5552 40.4771 43.692 40.7802 43.8183C41.1146 43.9575 41.4538 44.0839 41.797 44.1971L41.6016 44.7183L40.7612 46.9603L38.1821 53.8404C37.9559 54.4437 38.2616 55.1162 38.865 55.3424C39.4683 55.5685 40.1408 55.2628 40.3669 54.6594L42.3001 49.5025C42.8292 49.4282 43.4971 49.8967 44.2791 50.3853C45.1242 50.9134 46.3214 53.4755 47.0719 54.7291C47.3102 55.1272 47.781 55.2535 48.2225 55.1109V55.1109C48.9579 54.8734 49.3037 54.0401 48.9163 53.3715C47.9632 51.7269 46.4372 49.3949 45.3746 48.7479L45.1312 48.5856L43.1411 47.2589L43.368 46.6537L44.0826 44.7475C44.8056 44.8597 45.5384 44.9166 46.2745 44.9166C46.2887 44.9166 46.303 44.9163 46.3172 44.9158C48.9096 44.8209 51.4534 44.1849 53.7855 43.0487C54.3647 42.7665 54.6055 42.0682 54.3233 41.4889C54.0411 40.9097 53.3428 40.6689 52.7635 40.9511C50.7304 41.9417 48.5131 42.4975 46.2533 42.5832C44.4041 42.58 42.5807 42.1479 40.9266 41.3208C39.2661 40.4905 37.8217 39.2851 36.7078 37.7999Z" fill="#EB9947"></path></svg> 