<?xml version="1.0" encoding="UTF-8"?> <svg xmlns="http://www.w3.org/2000/svg" width="56" height="56" viewBox="0 0 56 56" fill="none"><path fill-rule="evenodd" clip-rule="evenodd" d="M30.4364 3.2761C29.0745 2.62053 27.5762 2.29804 26.0651 2.33515C24.554 2.37229 23.0735 2.76799 21.7453 3.48964C20.4171 4.2113 19.2795 5.23829 18.4262 6.48587L17.2412 8.2198L15.5073 7.03335C14.2604 6.17987 12.8285 5.63487 11.3298 5.44315C9.83089 5.25145 8.30792 5.41859 6.8863 5.9308C5.4647 6.44301 4.18509 7.28564 3.15293 8.38926C2.12077 9.49291 1.36556 10.8261 0.94954 12.2788C0.398121 14.2049 0.467032 16.2557 1.1465 18.1405C1.82452 20.0212 3.07619 21.6414 4.72461 22.7723L21.3446 34.663C21.6032 34.848 21.9261 34.9195 22.2386 34.8609C22.5511 34.8022 22.8261 34.6186 23 34.3525L34.1721 17.2597C35.3014 15.609 35.8835 13.645 35.836 11.6453C35.7882 9.64112 35.1103 7.70285 33.8986 6.10572C32.9851 4.90148 31.7983 3.93165 30.4364 3.2761ZM29.4244 5.37855C28.3957 4.88337 27.2639 4.63975 26.1224 4.66778C24.981 4.69583 23.8626 4.99473 22.8592 5.53989C22.1302 5.93602 21.4772 6.45394 20.9273 7.06912C20.7206 7.30037 20.5285 7.54536 20.3524 7.80278L18.509 10.5001C18.3344 10.7557 18.0653 10.9314 17.7611 10.9885C17.4569 11.0456 17.1424 10.9795 16.887 10.8047L14.1897 8.95903C13.307 8.35484 12.3015 7.95518 11.2467 7.78811C11.176 7.7769 11.1049 7.76674 11.0337 7.75763C9.99804 7.62516 8.94715 7.71951 7.95354 8.03271C7.86092 8.0619 7.76879 8.093 7.67722 8.12599C6.60337 8.51291 5.63677 9.14942 4.8571 9.98308C4.07746 10.8167 3.50702 11.8237 3.19276 12.921C2.77622 14.376 2.82826 15.9253 3.34155 17.3491C3.85484 18.7729 4.80332 19.999 6.05253 20.8536L6.07265 20.8677L21.7127 32.0573L32.2405 15.9507C33.0974 14.702 33.5393 13.2151 33.5033 11.701C33.4672 10.1869 32.955 8.72253 32.0396 7.51594C31.7063 7.07644 31.3247 6.67825 30.9032 6.32819C30.4525 5.95381 29.9561 5.63449 29.4244 5.37855Z" fill="#EB9947"></path><path fill-rule="evenodd" clip-rule="evenodd" d="M38.1902 26.9602C38.9461 26.9113 39.7043 27.0161 40.4189 27.2689C41.1333 27.5215 41.7895 27.9166 42.3469 28.4302C42.9038 28.9433 43.3505 29.5642 43.6606 30.2541L43.6617 30.2565L44.7441 32.641L44.7933 32.7494L44.8671 32.7127L47.2489 31.5281C47.8769 31.2097 48.5588 31.0134 49.2581 30.9478C49.3105 30.9429 49.3629 30.9387 49.4154 30.9353C50.1718 30.8861 50.931 30.9909 51.6458 31.2437C52.3608 31.4964 53.0173 31.8918 53.5749 32.4057C54.2137 33.0972 54.5116 33.4789 54.8898 34.2328C55.5189 35.6316 55.5863 37.2191 55.0773 38.6664C54.5684 40.1142 53.5217 41.3103 52.1552 42.0075L52.1451 42.0125L41.6025 47.264L41.5987 47.2659C41.296 47.4184 40.9658 47.5082 40.6273 47.53C40.2857 47.5521 39.9438 47.5034 39.6245 47.3906C39.3029 47.2766 39.0083 47.0986 38.7579 46.8674C38.5087 46.6375 38.3088 46.3596 38.1699 46.051L33.2684 35.3284C32.6388 33.927 32.574 32.337 33.0863 30.8892C33.5989 29.4417 34.6493 28.247 36.0199 27.5538C36.6955 27.2112 37.4339 27.0091 38.1902 26.9602ZM48.3011 33.6107C48.3587 33.5814 48.4171 33.5539 48.4763 33.5282C48.8212 33.378 49.1907 33.2884 49.5678 33.2637C50.009 33.235 50.4521 33.2964 50.8686 33.4438C51.2856 33.5911 51.6682 33.8216 51.9935 34.1214C52.3186 34.4211 52.5803 34.7852 52.7614 35.1891C53.0827 35.903 53.1639 36.6976 52.9999 37.455C52.9679 37.6025 52.9267 37.7486 52.8761 37.8924C52.5666 38.773 51.9304 39.5012 51.0994 39.9266L40.5558 45.1786L40.5495 45.1818C40.5268 45.1933 40.501 45.1999 40.4762 45.2015C40.4531 45.203 40.4294 45.2004 40.4041 45.1914C40.3809 45.1832 40.3587 45.1696 40.3403 45.1526C40.3223 45.136 40.3077 45.1157 40.2976 45.093L35.3954 34.3689C35.0133 33.5162 34.9742 32.5489 35.2859 31.6678C35.5984 30.7856 36.2398 30.0572 37.0747 29.6351C37.469 29.4351 37.8998 29.3172 38.3408 29.2886C38.5778 29.2733 38.8151 29.2839 39.0485 29.3198C39.2497 29.3507 39.4481 29.4005 39.6409 29.4687C40.0578 29.6161 40.4408 29.8466 40.7657 30.1461C40.8931 30.2635 41.0108 30.3907 41.1176 30.5263C41.2831 30.7363 41.4228 30.9666 41.5329 31.212L43.1683 34.8145C43.2992 35.1028 43.5416 35.3255 43.8399 35.4315C44.1381 35.5376 44.4667 35.5178 44.7502 35.3768L48.2922 33.6152L48.3011 33.6107Z" fill="#EB9947"></path><path d="M25.6667 45.5001C25.6667 44.8557 25.1443 44.3334 24.5 44.3334C23.8557 44.3334 23.3333 44.8557 23.3333 45.5001V47.8334H21C20.3557 47.8334 19.8333 48.3557 19.8333 49.0001C19.8333 49.6444 20.3557 50.1667 21 50.1667H23.3333V52.5001C23.3333 53.1444 23.8557 53.6667 24.5 53.6667C25.1443 53.6667 25.6667 53.1444 25.6667 52.5001V50.1667H28C28.6443 50.1667 29.1667 49.6444 29.1667 49.0001C29.1667 48.3557 28.6443 47.8334 28 47.8334H25.6667V45.5001Z" fill="#EB9947"></path><path d="M46.6667 3.50008C46.6667 2.85575 46.1443 2.33341 45.5 2.33341C44.8557 2.33341 44.3333 2.85575 44.3333 3.50008V5.83341H42C41.3557 5.83341 40.8333 6.35575 40.8333 7.00008C40.8333 7.64441 41.3557 8.16675 42 8.16675H44.3333V10.5001C44.3333 11.1444 44.8557 11.6667 45.5 11.6667C46.1443 11.6667 46.6667 11.1444 46.6667 10.5001V8.16675H49C49.6443 8.16675 50.1667 7.64441 50.1667 7.00008C50.1667 6.35575 49.6443 5.83341 49 5.83341H46.6667V3.50008Z" fill="#EB9947"></path><path d="M6.125 43.1667C4.99739 43.1667 4.08333 42.2526 4.08333 41.1251C4.08333 39.9975 4.99739 39.0834 6.125 39.0834C7.25261 39.0834 8.16667 39.9975 8.16667 41.1251C8.16667 42.2526 7.25261 43.1667 6.125 43.1667Z" fill="#EB9947"></path><path fill-rule="evenodd" clip-rule="evenodd" d="M51.625 19.8334C50.4975 19.8334 49.5833 20.7475 49.5833 21.8751C49.5833 23.0027 50.4975 23.9167 51.625 23.9167C52.7525 23.9167 53.6667 23.0027 53.6667 21.8751C53.6667 20.7475 52.7525 19.8334 51.625 19.8334Z" fill="#EB9947"></path></svg> 