<?xml version="1.0" encoding="UTF-8"?> <svg xmlns="http://www.w3.org/2000/svg" fill="none" viewBox="0 0 48 49"><g fill="#EB9947" fill-rule="evenodd" clip-path="url(#a)" clip-rule="evenodd"><path d="m27.8846 10.6127-5.7991 4.7983c-.2598.2149-.6104.2845-.9325.185l-8.0977-2.5001 2.5002 8.0976c.0995.3222.0299.6728-.1851.9325l-4.8002 5.8011 8.4644-.2322c.3736-.0102.7218.1887.9026.5159l4.0038 7.2441 2.8634-8.0032c.1009-.282.3228-.5039.6047-.6047l8.0055-2.8642-7.2461-4.003c-.3273-.1807-.5264-.529-.5161-.9027l.2322-8.4644Zm-.2015-2.08597c.3684-.05849.746-.00767 1.0858.14617.3399.15385.6273.40396.8265.7194.1992.31544.3016.6824.2944 1.0554l-.0001.0082-.2214 8.0676 6.8492 3.7837c.0158.0087.0312.0178.0465.0273.3162.1976.5693.4816.7293.8184.16.3368.2204.7124.1739 1.0824-.0466.37-.198.7189-.4364 1.0056-.234.2814-.5423.4914-.8896.6061l-7.613 2.7237-2.7235 7.6122c-.1141.3473-.3235.6557-.6045.89-.2867.239-.6358.3908-1.0061.4374-.3703.0466-.7462-.0139-1.0831-.1744-.337-.1605-.6209-.4142-.818-.731-.0091-.0147-.0179-.0296-.0262-.0446l-3.7857-6.8495-8.0759.2216c-.3731.0071-.73998-.0953-1.05543-.2945-.31544-.1992-.56555-.4865-.71939-.8264-.15384-.3399-.20467-.7174-.14618-1.0859.05698-.359.21529-.6941.45602-.9659l4.54488-5.4924-2.3526-7.6198c-.0038-.0123-.0074-.0247-.0107-.0372-.0904-.3388-.0901-.6955.0008-1.0342.091-.3387.2694-.6476.5174-.8956s.5568-.4264.8955-.5174c.3388-.0909.6954-.0912 1.0343-.0008.0125.0034.0249.0069.0372.0107l7.6198 2.3526 5.4904-4.54287c.2718-.24072.6069-.39902.9659-.456Z"></path><path d="M27.0389 27.0794c.3905-.3905 1.0237-.3905 1.4142 0l18.754 18.754c.3905.3905.3905 1.0237 0 1.4142-.3905.3906-1.0237.3906-1.4142 0l-18.754-18.754c-.3905-.3905-.3905-1.0237 0-1.4142ZM35 4.54053c0-.55229.4477-1 1-1h6c.5523 0 1 .44771 1 1 0 .55228-.4477 1-1 1h-6c-.5523 0-1-.44772-1-1Z"></path><path d="M39 .540527c.5523 0 1 .447716 1 1.000003v6c0 .55228-.4477 1-1 1s-1-.44772-1-1v-6c0-.552287.4477-1.000003 1-1.000003ZM3.5 40.5405c0-.5523.44772-1 1-1h6c.5523 0 1 .4477 1 1s-.4477 1-1 1h-6c-.55228 0-1-.4477-1-1Z"></path><path d="M7.5 36.5405c.55228 0 1 .4477 1 1v6c0 .5523-.44772 1-1 1s-1-.4477-1-1v-6c0-.5523.44772-1 1-1ZM18 .540527c.5523 0 1 .447716 1 1.000003v4.5c0 .55228-.4477 1-1 1s-1-.44772-1-1v-4.5c0-.552287.4477-1.000003 1-1.000003ZM.5 19.5405c0-.5523.447715-1 1-1H6c.55228 0 1 .4477 1 1s-.44772 1-1 1H1.5c-.552285 0-1-.4477-1-1Z"></path></g><defs><clipPath id="a"><path fill="#fff" d="M0 .0405273h48v48H0z"></path></clipPath></defs></svg> 