<?xml version="1.0" encoding="UTF-8"?> <svg xmlns="http://www.w3.org/2000/svg" fill="none" viewBox="0 0 20 21"><g fill="#000" clip-path="url(#a)"><path fill-rule="evenodd" d="M.208252 19.4157c0-.2301.186548-.4167.416667-.4167H19.3749c.2301 0 .4167.1866.4167.4167 0 .2301-.1866.4167-.4167.4167H.624919c-.230119 0-.416667-.1866-.416667-.4167ZM5.04409 12.3324c-.13718 0-.27223.0338-.39317.0986-.12095.0647-.22405.1583-.30014.2725L2.65352 15.249H16.0963l-1.6972-2.5455c-.0761-.1141-.1792-.2078-.3002-.2725-.1209-.0648-.256-.0986-.3931-.0986m-8.66171 0c-.00002 0 .00001 0 0 0Zm8.66171 0H5.04409h8.66171Zm-9.44814-.6361c.2419-.1295.51202-.1973.78639-.1973h8.66175c.2743 0 .5445.0678.7864.1973s.4481.3166.6002.5449l2.1292 3.1933c.0852.1279.0932.2923.0207.4278-.0725.1355-.2137.2201-.3674.2201H1.87492c-.15367 0-.29487-.0846-.36737-.2201-.07251-.1355-.06455-.2999.02069-.4278l2.12915-3.1933c-.00001.0001.00001 0 0 0 .15218-.2282.35839-.4155.60027-.5449Z" clip-rule="evenodd"></path><path d="M15.5234 4.59532c.1029-.20583.0195-.45611-.1864-.559-.2058-.10289-.4561-.01943-.5589.1864l-1.5325 3.06584c-.0693.13839-.1757.25477-.3074.3361-.1316.08135-.2835.12441-.4383.12436H6.24979c-.15478.00005-.30652-.04301-.4382-.12436-.13166-.08133-.23811-.1978-.30735-.33619L3.98178 4.24272c-.03998-.07999-.10223-.1415-.17548-.18078-.11523-.06177-.25767-.06852-.38351-.00562-.20584.10289-.28929.35317-.1864.559l1.5225 3.04583c.13848.27687.35137.50979.61474.67248.26334.16267.56676.2488.87629.24873h6.24998c.3095.00007.613-.08606.8763-.24873.2634-.16269.4763-.39561.6147-.67248l1.5325-3.06583Z"></path><path fill-rule="evenodd" d="M3.81075 5.66569c0-.23012.18655-.41667.41667-.41667H14.5224c.2301 0 .4167.18655.4167.41667s-.1866.41667-.4167.41667H4.22742c-.23012 0-.41667-.18655-.41667-.41667Z" clip-rule="evenodd"></path><path fill-rule="evenodd" d="M9.37492 3.58236c-.55254 0-1.08244.21949-1.47314.61019-.3907.3907-.6102.92061-.6102 1.47314 0 .23012-.18654.41667-.41666.41667-.23012 0-.41667-.18655-.41667-.41667 0-.77355.30729-1.51541.85427-2.06239.54698-.54699 1.28885-.85428 2.0624-.85428.77358 0 1.51538.30729 2.06238.85428.547.54698.8543 1.28884.8543 2.06239 0 .23012-.1866.41667-.4167.41667-.2301 0-.4166-.18655-.4166-.41667 0-.55253-.2195-1.08244-.6102-1.47314-.3907-.3907-.92065-.61019-1.47318-.61019Z" clip-rule="evenodd"></path><path fill-rule="evenodd" d="M9.37492.249023c.23012 0 .41666.186548.41666.416667v2.5c0 .23012-.18654.41667-.41666.41667-.23012 0-.41667-.18655-.41667-.41667v-2.5c0-.230119.18655-.416667.41667-.416667ZM6.45825 8.16569c0-.23012.18655-.41667.41667-.41667h4.99998c.2301 0 .4167.18655.4167.41667v3.75001c0 .2301-.1866.4167-.4167.4167H6.87492c-.23012 0-.41667-.1866-.41667-.4167V8.16569Zm.83333.41667V11.499h4.16672V8.58236H7.29158ZM3.95825 15.6657c0-.2301.18655-.4167.41667-.4167h9.99998c.2301 0 .4167.1866.4167.4167v3.75c0 .2301-.1866.4167-.4167.4167H4.37492c-.23012 0-.41667-.1866-.41667-.4167v-3.75Zm.83333.4167v2.9166h9.16672v-2.9166H4.79158Z" clip-rule="evenodd"></path><path fill-rule="evenodd" d="M9.37492 7.74902c.23012 0 .41666.18655.41666.41667v3.75001c0 .2301-.18654.4167-.41666.4167-.23012 0-.41667-.1866-.41667-.4167V8.16569c0-.23012.18655-.41667.41667-.41667ZM9.37492 15.249c.23012 0 .41666.1866.41666.4167v3.75c0 .2301-.18654.4167-.41666.4167-.23012 0-.41667-.1866-.41667-.4167v-3.75c0-.2301.18655-.4167.41667-.4167ZM6.87492 15.249c.23012 0 .41666.1866.41666.4167v3.75c0 .2301-.18654.4167-.41666.4167-.23012 0-.41667-.1866-.41667-.4167v-3.75c0-.2301.18655-.4167.41667-.4167ZM11.8749 15.249c.2301 0 .4167.1866.4167.4167v3.75c0 .2301-.1866.4167-.4167.4167-.2301 0-.4166-.1866-.4166-.4167v-3.75c0-.2301.1865-.4167.4166-.4167ZM.330291 14.1211c.162718-.1628.426537-.1628.589255 0l1.250004 1.25c.16271.1627.16271.4265 0 .5892-.16272.1627-.42654.1627-.58926 0l-1.249999-1.25c-.162719-.1627-.162719-.4265 0-.5892ZM18.4195 14.1211c.1628.1627.1628.4265 0 .5892l-1.25 1.25c-.1627.1627-.4265.1627-.5892 0-.1627-.1627-.1627-.4265 0-.5892l1.25-1.25c.1627-.1628.4265-.1628.5892 0Z" clip-rule="evenodd"></path></g><defs><clipPath id="a"><path fill="#fff" d="M0 .0405273h20v20H0z"></path></clipPath></defs></svg> 