<?xml version="1.0" encoding="UTF-8"?> <svg xmlns="http://www.w3.org/2000/svg" fill="none" viewBox="0 0 20 21"><g fill="#000" fill-rule="evenodd" clip-path="url(#a)" clip-rule="evenodd"><path d="M1.11465 1.15567c-.00077.00372-.00079.00755-.00005.01129.00109.00551.00208.01104.00295.01659.29089 1.85498 1.51604 7.7763 5.74049 12.00075C11.0825 17.4087 17.002 18.6322 18.8605 18.924c.0099.0015.0198.0034.0295.0057-.0022-.0097-.0041-.0195-.0057-.0293-.2926-1.8579-1.5161-7.7774-5.7405-12.00184C8.92016 2.67493 2.99799 1.44896 1.14302 1.15807c-.00504-.00079-.01007-.00168-.01508-.00265-.0044-.00086-.00893-.00077-.01329.00025ZM1.2785.335796C1.14783.311739 1.01332.318103.885431.354448.7547.3916.634562.459034.534758.551284a.41647684.41647684 0 0 0-.021313.021175C.419889.672363.351479.793116.313878.92472c-.036707.12847-.043022.26368-.018503.39494C.594806 3.22442 1.85533 9.36011 6.26878 13.7736c4.40932 4.4093 10.53612 5.6699 12.45012 5.9717.1326.0278.27.0229.4004-.0144.1361-.039.2599-.1119.36-.2119.1-.1001.1729-.224.2119-.36.0373-.1304.0422-.2679.0144-.4005-.3026-1.9129-1.5631-8.0398-5.9726-12.4492C9.31994 1.8962 3.18256.635052 1.2785.335796Z"></path><path d="M10.0621 7.83517c-.3009-.30061-.70885-.46942-1.13416-.4693-.42538.00013-.83328.16923-1.13398.4701-.3007.30088-.46956.70888-.46944 1.13426.00012.42538.16922.83329.4701 1.13397l2.14102 2.1402c.00023.0002.00047.0005.0007.0007.30106.2976.70766.464 1.13106.4629.4236-.001.8297-.1697 1.1293-.4692.2997-.2995.4687-.7055.47-1.1292.0013-.4233-.1649-.8299-.4622-1.13115l-2.1424-2.14328ZM8.9277 6.53254c.64639-.00019 1.2664.25641 1.7236.71334l2.1451 2.14599c.4526.45796.7056 1.07643.7036 1.72033-.002.6439-.2587 1.2608-.7142 1.716-.4554.4551-1.0725.7115-1.7164.7132-.6438.0016-1.26219-.2517-1.71989-.7046l-.00151-.0015-2.14246-2.1417c-.00001 0 0 .0001 0 0-.45719-.4569-.71417-1.07675-.71435-1.72312-.00019-.6464.2564-1.26639.71334-1.72359.45693-.4572 1.07678-.71416 1.72317-.71435ZM6.85804 13.1843c.16264.1628.16265.4268-.00014.5894l-1.7775 1.7758c-.16279.1627-.42661.1625-.58926-.0002-.16264-.1628-.16251-.4267.00028-.5893l1.7775-1.7758c.1628-.1627.42648-.1627.58912.0001Z"></path><path d="M3.25389 14.2913c.19959-.1277.43674-.1835.67232-.1583.23558.0253.45551.1301.62351.2972l1.06247 1.0608c.16707.168.27187.3879.29712.6235.02525.2355-.03056.4727-.15823.6723-.00432.0067-.00883.0134-.01353.0198l-1.84854 2.5528c-.08273.1263-.19195.2332-.32015.3132-.13221.0825-.28125.1343-.43614.1517-.15489.0173-.31169-.0004-.45886-.0517-.14717-.0512-.28097-.1349-.39156-.2447l-.00102-.001-1.767497-1.7675c-.110428-.1105-.194618-.2444-.24626-.3918-.051642-.1474-.069447-.3045-.052096-.4598.01735-.1552.069412-.3045.152326-.4369.080278-.1281.187483-.2372.314103-.3196l2.552324-1.8466c.00644-.0047.01301-.0092.01971-.0134Zm.4565.6974-2.54941 1.8445c-.00714.0051-.01444.0101-.02189.0148-.02634.0166-.04859.0389-.06512.0653-.01653.0264-.02691.0562-.03037.0871-.00346.031.00009.0623.01039.0917.01029.0293.02705.056.04905.078-.00001 0 .00001 0 0 0l1.76648 1.7665c-.00012-.0001.00012.0001 0 0 .02212.0219.04919.0389.07856.0491.02953.0103.06099.0139.09207.0104.03107-.0035.06098-.0139.0875-.0304.02653-.0166.04901-.0389.06579-.0653.00451-.0071.00923-.014.01416-.0208l1.84606-2.5494c.02227-.0383.0318-.0827.02707-.1269-.00503-.047-.02586-.0908-.05905-.1243-.00012-.0002.00013.0001 0 0L3.9621 15.021c-.00007 0 .00007.0001 0 0-.03357-.0333-.07768-.0543-.1247-.0594-.04422-.0047-.08871.0048-.12701.0271ZM15.509 4.53194c.1627.1628.1625.42662-.0003.58926l-1.7775 1.77583c-.1628.16264-.4266.16252-.5892-.00028-.1627-.16279-.1625-.42661.0003-.58925l1.7775-1.77583c.1627-.16265.4266-.16252.5892.00027Z"></path><path d="M16.869.254686c.1552-.016948.3122.001236.4594.053207.1472.051945.2808.136314.3909.246862 0-.000053.0001.000053 0 0l1.7648 1.767255c.11.1103.1941.24402.2457.39101.0516.14699.0696.30368.0527.45856-.0169.15487-.0683.30398-.1504.43637-.0798.12858-.1866.23821-.3129.32133L16.766 5.77651c-.0065.00466-.013.00914-.0197.01342-.1996.12767-.4368.18349-.6724.15824-.2355-.02525-.4555-.13006-.6235-.29713L14.389 4.59129l-.001-.00105c-.1671-.168-.2719-.38793-.2972-.62351-.0252-.23558.0306-.47273.1583-.67232.0043-.0067.0087-.01326.0134-.0197L16.111.719457c.0829-.126583.1923-.233639.3208-.313655.1326-.08252.282-.134167.4372-.151116Zm.182.839014c-.0293-.01036-.0606-.01398-.0915-.01061-.031.00338-.0608.01368-.0872.03013s-.0488.03864-.0655.06491c-.0045.00709-.0092.01405-.0141.02086l-1.8462 2.55192c-.0223.0383-.0318.08279-.0271.12701.0051.04693.0259.09076.0591.12431-.0002-.00013.0001.00013 0 0l1.0596 1.05792c-.0001-.00008 0 .00009 0 0 .0335.03328.0777.05439.1247.05943.0442.00474.0887-.0048.127-.0271l2.5494-1.84446c.0064-.00466.013-.00913.0197-.01341.0263-.01685.0485-.03938.065-.06594.0165-.02657.0268-.05648.0302-.08756.0034-.03107-.0002-.06251-.0106-.092-.0103-.02942-.0271-.05616-.0491-.07826m0 0-1.765-1.7675c-.022-.02205-.049-.03929-.0784-.04965"></path></g><defs><clipPath id="a"><path fill="#fff" d="M0 .0405273h20v20H0z"></path></clipPath></defs></svg> 