<?xml version="1.0" encoding="UTF-8"?> <svg xmlns="http://www.w3.org/2000/svg" fill="none" viewBox="0 0 48 49"><g fill="#EB9947" fill-rule="evenodd" clip-path="url(#a)" clip-rule="evenodd"><path d="M2.67506 2.71668c-.00185.00891-.0019.01812-.00012.02708.00263.01322.00499.0265.00707.03982.69816 4.45196 3.6385 18.66312 13.77719 28.80182 10.1386 10.1386 24.3456 13.075 28.806 13.7752.0237.0037.0473.0083.0707.0137-.0054-.0232-.0099-.0466-.0136-.0702-.7023-4.4589-3.6387-18.6659-13.7773-28.8045C21.4083 6.3629 7.19508 3.42057 2.74316 2.72243c-.0121-.0019-.02417-.00402-.03619-.00636-.01058-.00206-.02145-.00185-.03191.00061ZM3.06831.748977c-.31363-.057738-.63644-.042463-.94337.044764-.31376.089165-.60209.251009-.84162.472409-.01765.01632-.03472.03327-.05115.05082-.22453.23977-.388719.52957-.478961.84542-.088097.30834-.103251.63284-.044407.94785C1.42744 7.68168 4.45269 22.4073 15.045 32.9996c10.5824 10.5825 25.2866 13.6079 29.8803 14.3321.3182.0668.6481.055.961-.0346.3265-.0934.6237-.2684.8638-.5085.2401-.2401.4151-.5374.5086-.8639.0896-.313.1014-.643.0346-.9613-.7261-4.5909-3.7515-19.2954-14.3341-29.878C22.3678 4.49395 7.63805 1.46719 3.06831.748977Z"></path><path d="M24.1488 18.7475c-.722-.7215-1.7011-1.1266-2.7218-1.1263-1.0209.0003-1.9999.4061-2.7216 1.1282-.7217.7221-1.1269 1.7013-1.1267 2.7222.0003 1.0209.4062 1.9999 1.1283 2.7216l5.1384 5.1365c.0006.0005.0012.0011.0017.0016.7227.7142 1.6984 1.1136 2.7145 1.111 1.0168-.0025 1.9913-.4074 2.7105-1.1262.7192-.7188 1.1247-1.6931 1.1278-2.7099.0032-1.0159-.3956-1.9918-1.1092-2.7149l-5.1419-5.1438Zm-2.7224-3.1263c1.5513-.0005 3.0393.6153 4.1366 1.712l5.1484 5.1504c1.0862 1.0991 1.6933 2.5835 1.6885 4.1288-.0048 1.5453-.621 3.0259-1.714 4.1183-1.093 1.0924-2.574 1.7078-4.1193 1.7116-1.5453.0039-3.0294-.604-4.1279-1.691l-.0036-.0035-5.1419-5.14c-1.0973-1.0966-1.714-2.5843-1.7145-4.1356-.0004-1.5513.6154-3.0393 1.7121-4.1366 1.0966-1.0973 2.5842-1.714 4.1356-1.7144ZM16.4592 31.5854c.3903.3907.3904 1.0242-.0003 1.4145l-4.266 4.262c-.3907.3904-1.0239.3901-1.4143-.0006-.3903-.3907-.39-1.0239.0007-1.4142l4.266-4.262c.3907-.3904 1.0236-.3904 1.4139.0003Z"></path><path d="M7.80923 34.2421c.47902-.3064 1.04818-.4404 1.61357-.3798.56539.0606 1.0932.3122 1.4964.7131l2.55 2.546c.4009.4032.6525.931.7131 1.4964.0606.5654-.0734 1.1345-.3798 1.6136-.0104.0162-.0212.032-.0325.0476l-4.43647 6.1266c-.19855.3032-.46068.5597-.76836.7517-.31732.1981-.675.3224-1.04674.364-.37173.0415-.74805-.0008-1.10126-.1239-.35322-.1231-.67434-.3238-.93975-.5874l-.00244-.0024-4.242-4.242c-.265026-.2651-.467083-.5865-.591023-.9403-.12394-.3538-.166672-.7309-.125031-1.1034.041642-.3725.166589-.7309.365583-1.0486.192671-.3076.449961-.5693.753851-.7672l6.12556-4.4318c.01546-.0112.03124-.0219.04731-.0322Zm1.0956 1.6739-6.11858 4.4267c-.01713.0124-.03465.0242-.05253.0355-.06321.0399-.11662.0935-.15629.1568-.03967.0633-.06458.1348-.07288.2091-.0083.0742.00022.1494.02492.2199.0247.0705.06493.1346.11772.1874-.00002 0 .00003 0 0 0l4.23956 4.2396c-.00029-.0003.00029.0003 0 0 .05308.0524.11807.0933.18855.1178.07087.0247.14638.0332.22096.0249.07458-.0084.14635-.0333.21001-.0731.06367-.0397.11762-.0932.15788-.1565.01082-.0171.02216-.0338.034-.0501l4.43055-6.1184c.0534-.0919.0763-.1986.0649-.3047-.012-.1126-.062-.2178-.1417-.2983-.0003-.0003.0003.0003 0 0l-2.54296-2.539c-.00016-.0002.00017.0001 0 0-.08057-.0799-.18644-.1306-.29928-.1427-.10613-.0113-.21291.0116-.30483.0651ZM37.2215 10.8197c.3904.3907.3901 1.0239-.0006 1.4142l-4.266 4.262c-.3907.3904-1.0239.3901-1.4143-.0006-.3903-.3907-.39-1.0239.0007-1.4142l4.266-4.262c.3907-.3904 1.0239-.3901 1.4142.0006Z"></path><path d="M40.4855.554313c.3725-.040676.7493.002967 1.1027.127696.3531.124669.6737.327151.9381.592471-.0001-.00013.0001.00013 0 0l4.2354 4.24142c.2641.26472.4658.58564.5897.93842.1239.35277.1671.72883.1265 1.10053-.0406.3717-.164.72956-.3611 1.04729-.1914.3086-.4476.57172-.7508.7712l-6.1277 4.43336c-.0155.0112-.0313.0219-.0474.0322-.479.3064-1.0481.4404-1.6135.3798-.5654-.0606-1.0933-.3122-1.4965-.7131l-2.5474-2.5434-.0025-.0026c-.4009-.4031-.6525-.931-.7131-1.49639-.0606-.56539.0734-1.13455.3798-1.61356.0103-.01607.021-.03183.0322-.04728l4.4365-6.13261c.1988-.3038.4615-.56073.7699-.75277.3181-.198047.6767-.322001 1.0492-.362677Zm.4369 2.013637c-.0704-.02486-.1456-.03357-.2198-.02546-.0743.00811-.1457.03282-.2092.07231-.0634.03948-.1171.09272-.1571.15578-.0109.01703-.0222.03372-.034.05006l-4.4307 6.1246c-.0535.09193-.0764.19871-.0651.30483.0121.11263.0621.21782.1417.29834-.0003-.00031.0003.00032 0 0l2.543 2.53899c-.0002-.0002.0002.0002 0 0 .0806.0799.1865.1306.2993.1427.1061.0113.2129-.0116.3048-.0651l6.1186-4.42669c.0155-.01118.0312-.02191.0473-.03219.0632-.04043.1165-.0945.1561-.15825.0395-.06375.0643-.13556.0724-.21013.0082-.07457-.0005-.15002-.0254-.22081-.0248-.07061-.065-.13479-.1178-.18782m0 0-4.236-4.242c-.0527-.05293-.1176-.09429-.1881-.11916"></path></g><defs><clipPath id="a"><path fill="#fff" d="M0 .0405273h48v48H0z"></path></clipPath></defs></svg> 