<?xml version="1.0" encoding="UTF-8"?> <svg xmlns="http://www.w3.org/2000/svg" fill="none" viewBox="0 0 20 21"><g fill="#000" fill-rule="evenodd" clip-path="url(#a)" clip-rule="evenodd"><path d="M11.6185 4.44576 9.20221 6.44505c-.10824.08955-.25432.11854-.38855.0771L5.43964 5.48041l1.04173 3.37402c.04145.13424.01246.28032-.0771.38856L4.40416 11.6601l3.52683-.0968c.15569-.0042.30076.0787.3761.215l1.66826 3.0184 1.19305-3.3347c.0421-.1175.1345-.2099.252-.252l3.3356-1.1934-3.0192-1.66786c-.1364-.07533-.2193-.22042-.2151-.37614l.0968-3.52684Zm-.084-.86915c.1536-.02437.3109-.0032.4525.0609s.2613.16832.3443.29975c.083.13144.1257.28432.1227.43974l-.0001.00345-.0922 3.36149 2.8539 1.57653c.0065.00362.013.00741.0193.01138.1318.08234.2372.20067.3039.341.0667.14034.0918.29683.0724.45095-.0194.1542-.0824.2996-.1818.4191-.0975.1172-.2259.2047-.3706.2525l-3.1721 1.1349L10.7519 15.1c-.0476.1447-.1348.2732-.2519.3708-.1195.0996-.2649.1629-.4192.1823-.15431.0194-.31092-.0058-.45132-.0727-.14039-.0668-.25867-.1725-.34083-.3046-.00379-.0061-.00743-.0123-.01091-.0186l-1.57735-2.8539-3.36499.0923c-.15542.003-.30831-.0397-.43974-.1227-.13144-.083-.23565-.2027-.29975-.3443-.0641-.1416-.08528-.2989-.06091-.4525.02374-.1496.08971-.2892.19001-.4024l1.8937-2.28853-.98025-3.17489c-.00158-.00514-.00307-.01031-.00446-.01551-.03767-.14119-.03755-.28981.00034-.43094.0379-.14113.11224-.26982.21557-.37315.10333-.10333.23202-.17767.37315-.21557.14113-.03789.28975-.03801.43094-.00034.0052.00139.01037.00288.01551.00446l3.1749.98026 2.28769-1.89288c.1132-.1003.2528-.16626.4024-.19Z"></path><path d="M11.2661 11.3069c.1627-.1627.4266-.1627.5893 0l7.8141 7.8142c.1628.1627.1628.4265 0 .5892-.1627.1627-.4265.1627-.5892 0l-7.8142-7.8141c-.1627-.1628-.1627-.4266 0-.5893ZM14.5833 1.91569c0-.23012.1865-.41667.4166-.41667h2.5c.2301 0 .4167.18655.4167.41667s-.1866.41667-.4167.41667h-2.5c-.2301 0-.4166-.18655-.4166-.41667Z"></path><path d="M16.2499.249023c.2301 0 .4167.186548.4167.416667v2.5c0 .23012-.1866.41667-.4167.41667-.2301 0-.4166-.18655-.4166-.41667v-2.5c0-.230119.1865-.416667.4166-.416667ZM1.45825 16.9157c0-.2301.18655-.4167.41667-.4167h2.5c.23012 0 .41666.1866.41666.4167 0 .2301-.18654.4167-.41666.4167h-2.5c-.23012 0-.41667-.1866-.41667-.4167Z"></path><path d="M3.12492 15.249c.23012 0 .41666.1866.41666.4167v2.5c0 .2301-.18654.4167-.41666.4167-.23012 0-.41667-.1866-.41667-.4167v-2.5c0-.2301.18655-.4167.41667-.4167ZM7.49992.249023c.23012 0 .41666.186548.41666.416667v1.875c0 .23012-.18654.41667-.41666.41667-.23012 0-.41667-.18655-.41667-.41667v-1.875c0-.230119.18655-.416667.41667-.416667ZM.208252 8.16569c0-.23012.186548-.41667.416667-.41667H2.49992c.23012 0 .41666.18655.41666.41667s-.18654.41667-.41666.41667H.624919c-.230119 0-.416667-.18655-.416667-.41667Z"></path></g><defs><clipPath id="a"><path fill="#fff" d="M0 .0405273h20v20H0z"></path></clipPath></defs></svg> 