<?xml version="1.0" encoding="UTF-8"?> <svg xmlns="http://www.w3.org/2000/svg" fill="none" viewBox="0 0 20 21"><g fill="#000" fill-rule="evenodd" clip-path="url(#a)" clip-rule="evenodd"><path d="M3.07616 3.11694C4.91246 1.28064 7.40301.249023 9.99992.249023c2.59688 0 5.08748 1.031617 6.92378 2.867917 1.8363 1.83629 2.8679 4.32684 2.8679 6.92376 0 2.5969-1.0316 5.0874-2.8679 6.9237-1.8363 1.8363-4.3269 2.868-6.92378 2.868-2.59691 0-5.08746-1.0317-6.92376-2.868C1.23987 15.1281.208252 12.6376.208252 10.0407c0-2.59692 1.031618-5.08747 2.867908-6.92376Zm6.92376-2.03458c-2.3759 0-4.65449.94382-6.3345 2.62383-1.68001 1.68002-2.62383 3.9586-2.62383 6.33451 0 2.3759.94382 4.6545 2.62383 6.3345 1.68001 1.68 3.9586 2.6238 6.3345 2.6238 2.37588 0 4.65448-.9438 6.33448-2.6238 1.68-1.68 2.6239-3.9586 2.6239-6.3345 0-2.37591-.9439-4.6545-2.6239-6.33451-1.68-1.68001-3.9586-2.62383-6.33448-2.62383Z"></path><path d="M9.99992.249023c.23008 0 .41668.186548.41668.416667V19.4157c0 .2301-.1866.4167-.41668.4167-.23012 0-.41667-.1866-.41667-.4167V.66569c0-.230119.18655-.416667.41667-.416667Z"></path><path d="M9.70529 9.33856c.16024-.16024.41921-.16303.58281-.00628l6.9709 6.67662c.1661.1592.1718.423.0127.5892-.1592.1662-.423.1718-.5892.0127l-6.6763-6.3946-6.54165 6.5416c-.16272.1627-.42654.1627-.58926 0-.16272-.1627-.16272-.4265 0-.5892l6.83-6.83004Z"></path></g><defs><clipPath id="a"><path fill="#fff" d="M0 .0405273h20v20H0z"></path></clipPath></defs></svg> 