<?xml version="1.0" encoding="UTF-8"?> <svg xmlns="http://www.w3.org/2000/svg" width="56" height="56" viewBox="0 0 56 56" fill="none"><path fill-rule="evenodd" clip-rule="evenodd" d="M11.9996 5.45093C12.6476 5.12693 13.3621 4.95825 14.0866 4.95825H42.0866C42.8111 4.95825 43.5256 5.12693 44.1736 5.45093C44.8216 5.77492 45.3852 6.24534 45.8199 6.82492L53.6018 17.2109C54.2317 18.0514 54.5598 19.0801 54.5327 20.1301C54.5057 21.1793 54.1257 22.1887 53.4543 22.9953L53.4524 22.9975L31.6669 49.3604L31.662 49.3663C31.224 49.8893 30.6767 50.31 30.0585 50.5986C29.4404 50.8872 28.7664 51.0368 28.0842 51.0368C27.402 51.0368 26.7281 50.8872 26.11 50.5986C25.4918 50.31 24.9445 49.8893 24.5065 49.3663L24.5016 49.3604L2.71603 22.9975L2.7144 22.9956C2.04286 22.1889 1.66283 21.1794 1.63575 20.1301C1.60865 19.08 1.93665 18.0514 2.5667 17.2109L10.3531 6.82509C10.7878 6.2455 11.3516 5.77492 11.9996 5.45093ZM14.0866 7.29159C13.7243 7.29159 13.3671 7.37592 13.0431 7.53792C12.7191 7.69989 12.4374 7.93504 12.22 8.22475M12.22 8.22475L4.43378 18.6103C4.11881 19.0306 3.95476 19.5449 3.9683 20.07C3.98185 20.595 4.17217 21.1002 4.50845 21.5036L4.51158 21.5074L26.2953 47.8682L26.2976 47.8709C26.5162 48.1312 26.7891 48.3405 27.0971 48.4843C27.4062 48.6286 27.7431 48.7034 28.0842 48.7034C28.4253 48.7034 28.7623 48.6286 29.0714 48.4843C29.3794 48.3405 29.6522 48.1312 29.8709 47.8709L29.8731 47.8682L51.6569 21.5074L51.66 21.5036C51.9963 21.1002 52.1866 20.595 52.2002 20.07C52.2137 19.5449 52.0497 19.0306 51.7347 18.6103L43.9532 8.22492C43.7359 7.93533 43.4539 7.69984 43.1301 7.53792C42.8061 7.37592 42.4488 7.29159 42.0866 7.29159H14.0866" fill="#EB9947"></path><path fill-rule="evenodd" clip-rule="evenodd" d="M12.0862 5.41685C12.6924 5.19865 13.3608 5.51325 13.579 6.11951L29.1843 49.4798C29.4025 50.0861 29.0879 50.7545 28.4816 50.9727C27.8754 51.1909 27.207 50.8763 26.9888 50.27L11.3835 6.90966C11.1653 6.3034 11.4799 5.63504 12.0862 5.41685Z" fill="#EB9947"></path><path fill-rule="evenodd" clip-rule="evenodd" d="M44.0846 5.41683C44.6909 5.63499 45.0055 6.30333 44.7873 6.90961L29.1843 50.2699C28.9662 50.8762 28.2978 51.1908 27.6915 50.9727C27.0853 50.7545 26.7706 50.0862 26.9888 49.4799L42.5918 6.11956C42.81 5.51329 43.4783 5.19866 44.0846 5.41683Z" fill="#EB9947"></path><path fill-rule="evenodd" clip-rule="evenodd" d="M1.62891 20.1249C1.62891 19.4806 2.15124 18.9583 2.79557 18.9583H53.3659C54.0102 18.9583 54.5326 19.4806 54.5326 20.1249C54.5326 20.7693 54.0102 21.2916 53.3659 21.2916H2.79557C2.15124 21.2916 1.62891 20.7693 1.62891 20.1249Z" fill="#EB9947"></path><path fill-rule="evenodd" clip-rule="evenodd" d="M28.0866 4.95825C28.4538 4.95825 28.7996 5.13115 29.0199 5.42492L39.5199 19.4249C39.9065 19.9404 39.802 20.6717 39.2866 21.0583C38.7711 21.4449 38.0398 21.3404 37.6532 20.8249L28.0866 8.06936L18.5199 20.8249C18.1333 21.3404 17.402 21.4449 16.8866 21.0583C16.3711 20.6717 16.2666 19.9404 16.6532 19.4249L27.1532 5.42492C27.3736 5.13115 27.7194 4.95825 28.0866 4.95825Z" fill="#EB9947"></path></svg> 