<svg xmlns="http://www.w3.org/2000/svg" class="{{ className }}" width="25" height="25" viewBox="0 0 25 25" fill="none">
<path d="M13.125 3.16602C13.125 2.82084 12.8452 2.54102 12.5 2.54102C12.1548 2.54102 11.875 2.82084 11.875 3.16602V20.4071L4.19194 12.7241C3.94786 12.48 3.55214 12.48 3.30806 12.7241C3.06398 12.9682 3.06398 13.3639 3.30806 13.608L12.0581 22.358C12.118 22.4179 12.187 22.4631 12.2608 22.4936C12.3251 22.5203 12.3948 22.5365 12.4678 22.5402C12.4785 22.5407 12.4892 22.541 12.5 22.541C12.66 22.541 12.8199 22.48 12.9419 22.358L21.6919 13.608C21.936 13.3639 21.936 12.9682 21.6919 12.7241C21.4479 12.48 21.0521 12.48 20.8081 12.7241L13.125 20.4071V3.16602Z" fill="black"/>
</svg>